<svg width="132" height="28" viewBox="0 0 132 28" fill="none" xmlns="http://www.w3.org/2000/svg" role="img" aria-labelledby="shalomTitle">
  <title id="shalomTitle">Shalom</title>
  <defs>
    <linearGradient id="shalomGlow" x1="2" y1="2" x2="26" y2="26" gradientUnits="userSpaceOnUse">
      <stop stop-color="#D6C29A"/>
      <stop offset="1" stop-color="#F7EBD3"/>
    </linearGradient>
  </defs>
  <rect x="1" y="1" width="26" height="26" rx="9" fill="url(#shalomGlow)" stroke="#E8D8B7"/>
  <path d="M19.015 8.572C18.072 7.724 16.856 7.3 15.367 7.3C13.799 7.3 12.567 7.748 11.671 8.644C10.949 9.366 10.588 10.23 10.588 11.234C10.588 12.129 10.863 12.843 11.411 13.377C11.96 13.911 12.918 14.374 14.285 14.767C15.008 14.971 15.518 15.135 15.816 15.258C16.13 15.368 16.397 15.541 16.617 15.776C16.852 15.996 16.97 16.278 16.97 16.624C16.97 17.017 16.805 17.339 16.475 17.59C16.161 17.826 15.722 17.943 15.157 17.943C14.529 17.943 13.995 17.77 13.556 17.425C13.133 17.079 12.832 16.616 12.654 16.035L9.783 16.883C10.082 18.042 10.683 18.954 11.584 19.618C12.501 20.278 13.642 20.607 15.006 20.607C16.574 20.607 17.83 20.199 18.773 19.382C19.716 18.549 20.187 17.464 20.187 16.129C20.187 15.014 19.857 14.123 19.198 13.456C18.538 12.788 17.485 12.253 16.036 11.851C15.337 11.655 14.843 11.503 14.554 11.396C14.271 11.277 14.034 11.128 13.843 10.949C13.654 10.76 13.56 10.525 13.56 10.242C13.56 9.897 13.697 9.624 13.972 9.425C14.248 9.213 14.623 9.107 15.101 9.107C15.603 9.107 16.02 9.237 16.35 9.496C16.681 9.74 16.919 10.082 17.065 10.522L19.816 9.52C19.549 9.126 19.282 8.81 19.015 8.572Z" fill="#1E4D39"/>
  <text x="36" y="19" fill="#1E4D39" font-family="Georgia, 'Times New Roman', serif" font-size="18" font-weight="700" letter-spacing="0.3">Shalom</text>
</svg>
